<svg xmlns="http://www.w3.org/2000/svg" viewBox="0 0 720 360" role="img" aria-label="Nephrology specialty illustration">
  <defs><linearGradient id="g" x1="0" x2="1" y1="0" y2="1"><stop stop-color="#dbeafe"/><stop offset="1" stop-color="#f0f9ff"/></linearGradient></defs>
  <rect width="720" height="360" rx="34" fill="url(#g)"/><circle cx="576" cy="80" r="90" fill="#93c5fd" opacity=".42"/>
  <path d="M184 96c58 0 94 48 82 112-10 53-46 84-92 84-34 0-60-26-60-60v-76c0-33 27-60 70-60zM310 96c-58 0-94 48-82 112 10 53 46 84 92 84 34 0 60-26 60-60v-76c0-33-27-60-70-60z" fill="#fff"/><path d="M438 126h160M438 184h108M438 242h188" stroke="#2563eb" stroke-width="24" stroke-linecap="round"/>
  <text x="112" y="315" font-family="Arial, sans-serif" font-size="34" font-weight="700" fill="#0f3b68">THAN HOC</text>
</svg>
