<svg xmlns="http://www.w3.org/2000/svg" viewBox="0 0 720 360" role="img" aria-label="Neurology specialty illustration">
  <defs><linearGradient id="g" x1="0" x2="1" y1="0" y2="1"><stop stop-color="#e0e7ff"/><stop offset="1" stop-color="#f0f9ff"/></linearGradient></defs>
  <rect width="720" height="360" rx="34" fill="url(#g)"/><circle cx="574" cy="80" r="88" fill="#a5b4fc" opacity=".42"/>
  <path d="M222 84c-60 0-106 42-106 100 0 50 35 86 84 92v-52h-22c-18 0-32-14-32-32s14-32 32-32h28v-28c0-27 22-48 48-48z" fill="#fff"/><path d="M276 96c54 12 88 46 88 94 0 50-36 82-88 88" stroke="#4f46e5" stroke-width="24" stroke-linecap="round" fill="none"/><path d="M430 126h150M430 184h108M430 242h188" stroke="#818cf8" stroke-width="24" stroke-linecap="round"/>
  <text x="112" y="315" font-family="Arial, sans-serif" font-size="34" font-weight="700" fill="#0f3b68">THAN KINH</text>
</svg>
