<svg xmlns="http://www.w3.org/2000/svg" viewBox="0 0 720 360" role="img" aria-label="Respiratory specialty illustration">
  <defs><linearGradient id="g" x1="0" x2="1" y1="0" y2="1"><stop stop-color="#cffafe"/><stop offset="1" stop-color="#f0fdfa"/></linearGradient></defs>
  <rect width="720" height="360" rx="34" fill="url(#g)"/><circle cx="580" cy="80" r="92" fill="#99f6e4" opacity=".45"/>
  <path d="M246 82v86c-54 9-94 54-94 108 0 24 20 44 44 44 48 0 86-58 86-130V82zM282 168c54 9 94 54 94 108 0 24-20 44-44 44-48 0-86-58-86-130" fill="#fff"/><path d="M430 126h142M430 184h190M430 242h116" stroke="#0891b2" stroke-width="24" stroke-linecap="round"/>
  <text x="112" y="315" font-family="Arial, sans-serif" font-size="34" font-weight="700" fill="#0f3b68">HO HAP</text>
</svg>
