<svg width="602" height="360" viewBox="0 0 602 360" xmlns="http://www.w3.org/2000/svg" xmlns:xlink="http://www.w3.org/1999/xlink" fill="none" overflow="hidden"><path d="M481.36 180C481.36 196.572 474.639 211.572 463.757 222.42 452.875 233.28 437.845 240 421.24 240 404.635 240 389.605 246.708 378.735 257.568 367.853 268.428 361.12 283.428 361.12 300 361.12 316.572 354.399 331.572 343.517 342.42 332.635 353.28 317.605 360 301 360 284.395 360 269.365 353.28 258.495 342.42 247.613 331.572 240.88 316.572 240.88 300 240.88 283.428 247.613 268.428 258.495 257.568 269.365 246.708 284.395 240 301 240 317.605 240 332.635 233.28 343.517 222.42 354.399 211.572 361.12 196.572 361.12 180 361.12 146.856 334.21 120 301 120 284.395 120 269.365 113.28 258.495 102.42 247.613 91.572 240.88 76.572 240.88 60 240.88 43.428 247.613 28.428 258.495 17.568 269.365 6.708 284.395 0 301 0 334.21 0 361.12 26.856 361.12 60 361.12 76.572 367.853 91.572 378.735 102.42 389.605 113.28 404.635 120 421.24 120 454.45 120 481.36 146.856 481.36 180Z" fill="#F44250"/><path d="M240.88 180C240.88 146.862 213.964 120 180.76 120 147.557 120 120.64 146.862 120.64 180 120.64 213.137 147.557 240 180.76 240 213.964 240 240.88 213.137 240.88 180Z" fill="#121212"/><path d="M120.64 300C120.64 266.863 93.7234 240 60.52 240 27.3167 240 0.400024 266.863 0.400024 300 0.400024 333.138 27.3167 360 60.52 360 93.7234 360 120.64 333.138 120.64 300Z" fill="#121212"/><path d="M601.6 300C601.6 266.863 574.683 240 541.48 240 508.277 240 481.36 266.863 481.36 300 481.36 333.138 508.277 360 541.48 360 574.683 360 601.6 333.138 601.6 300Z" fill="#121212"/></svg>