<svg viewBox="0 0 23 14" xmlns="http://www.w3.org/2000/svg" xmlns:xlink="http://www.w3.org/1999/xlink" fill="none" overflow="hidden"><mask maskUnits="userSpaceOnUse" x="4" y="0" width="15" height="14" id="mask0_127_17274"><path d="M11.9823 13.677C11.7838 13.9296 11.3777 13.7891 11.3777 13.4681L11.3777 10.3852C11.3777 10.0113 11.0747 9.70837 10.7009 9.70837L7.29693 9.70837C7.0217 9.70837 6.8612 9.39704 7.0217 9.17338L9.25964 6.04014C9.57999 5.59216 9.25964 4.96951 8.70854 4.96951L4.58911 4.96951C4.31388 4.96951 4.15338 4.65818 4.31387 4.43452L7.21507 0.372457C7.27888 0.283506 7.38137 0.230652 7.4903 0.230652L16.1359 0.230652C16.4111 0.230652 16.5716 0.541978 16.4111 0.765643L14.1732 3.89888C13.8528 4.34686 14.1732 4.96951 14.7243 4.96951L18.1282 4.96951C18.4106 4.96951 18.5691 5.29502 18.3944 5.51739L11.9829 13.6776 11.9823 13.677Z" fill="#000000"/></mask><defs><filter id="filter0_f_127_17274" color-interpolation-filters="sRGB" x="-1.66562" y="5.06287" width="17.967" height="12.4635" filterUnits="userSpaceOnUse" primitiveUnits="userSpaceOnUse"><feFlood flood-opacity="0" result="BackgroundImageFix"/><feBlend in="SourceGraphic" in2="BackgroundImageFix" result="shape" mode="normal"/><feGaussianBlur result="effect1_foregroundBlur_127_17274" stdDeviation="2.29179 2.29179"/></filter><filter id="filter1_f_127_17274" color-interpolation-filters="sRGB" x="-12.0914" y="-2.02332" width="27.0314" height="15.3908" filterUnits="userSpaceOnUse" primitiveUnits="userSpaceOnUse"><feFlood flood-opacity="0" result="BackgroundImageFix"/><feBlend in="SourceGraphic" in2="BackgroundImageFix" result="shape" mode="normal"/><feGaussianBlur result="effect1_foregroundBlur_127_17274" stdDeviation="2.29179 2.29179"/></filter><filter id="filter2_f_127_17274" color-interpolation-filters="sRGB" x="-10.6037" y="0.838165" width="23.7454" height="8.79703" filterUnits="userSpaceOnUse" primitiveUnits="userSpaceOnUse"><feFlood flood-opacity="0" result="BackgroundImageFix"/><feBlend in="SourceGraphic" in2="BackgroundImageFix" result="shape" mode="normal"/><feGaussianBlur result="effect1_foregroundBlur_127_17274" stdDeviation="1.37508 1.37508"/></filter><filter id="filter3_f_127_17274" color-interpolation-filters="sRGB" x="-9.22867" y="6.22382" width="23.8118" height="8.79703" filterUnits="userSpaceOnUse" primitiveUnits="userSpaceOnUse"><feFlood flood-opacity="0" result="BackgroundImageFix"/><feBlend in="SourceGraphic" in2="BackgroundImageFix" result="shape" mode="normal"/><feGaussianBlur result="effect1_foregroundBlur_127_17274" stdDeviation="1.37508 1.37508"/></filter><filter id="filter4_f_127_17274" color-interpolation-filters="sRGB" x="-8.76968" y="6.56757" width="23.8118" height="8.79703" filterUnits="userSpaceOnUse" primitiveUnits="userSpaceOnUse"><feFlood flood-opacity="0" result="BackgroundImageFix"/><feBlend in="SourceGraphic" in2="BackgroundImageFix" result="shape" mode="normal"/><feGaussianBlur result="effect1_foregroundBlur_127_17274" stdDeviation="1.37508 1.37508"/></filter><filter id="filter5_f_127_17274" color-interpolation-filters="sRGB" x="8.96524" y="-5.12549" width="22.3664" height="17.6096" filterUnits="userSpaceOnUse" primitiveUnits="userSpaceOnUse"><feFlood flood-opacity="0" result="BackgroundImageFix"/><feBlend in="SourceGraphic" in2="BackgroundImageFix" result="shape" mode="normal"/><feGaussianBlur result="effect1_foregroundBlur_127_17274" stdDeviation="2.29179 2.29179"/></filter><filter id="filter6_f_127_17274" color-interpolation-filters="sRGB" x="11.2967" y="0.91397" width="18.3655" height="7.58884" filterUnits="userSpaceOnUse" primitiveUnits="userSpaceOnUse"><feFlood flood-opacity="0" result="BackgroundImageFix"/><feBlend in="SourceGraphic" in2="BackgroundImageFix" result="shape" mode="normal"/><feGaussianBlur result="effect1_foregroundBlur_127_17274" stdDeviation="1.37508 1.37508"/></filter><filter id="filter7_f_127_17274" color-interpolation-filters="sRGB" x="11.2967" y="0.91397" width="18.3655" height="7.58884" filterUnits="userSpaceOnUse" primitiveUnits="userSpaceOnUse"><feFlood flood-opacity="0" result="BackgroundImageFix"/><feBlend in="SourceGraphic" in2="BackgroundImageFix" result="shape" mode="normal"/><feGaussianBlur result="effect1_foregroundBlur_127_17274" stdDeviation="1.37508 1.37508"/></filter><filter id="filter8_f_127_17274" color-interpolation-filters="sRGB" x="-4.01871" y="-6.60739" width="16.7698" height="19.045" filterUnits="userSpaceOnUse" primitiveUnits="userSpaceOnUse"><feFlood flood-opacity="0" result="BackgroundImageFix"/><feBlend in="SourceGraphic" in2="BackgroundImageFix" result="shape" mode="normal"/><feGaussianBlur result="effect1_foregroundBlur_127_17274" stdDeviation="1.37508 1.37508"/></filter><filter id="filter9_f_127_17274" color-interpolation-filters="sRGB" x="10.2694" y="-11.2637" width="16.4007" height="19.3433" filterUnits="userSpaceOnUse" primitiveUnits="userSpaceOnUse"><feFlood flood-opacity="0" result="BackgroundImageFix"/><feBlend in="SourceGraphic" in2="BackgroundImageFix" result="shape" mode="normal"/><feGaussianBlur result="effect1_foregroundBlur_127_17274" stdDeviation="1.37508 1.37508"/></filter><filter id="filter10_f_127_17274" color-interpolation-filters="sRGB" x="11.6239" y="-3.15738" width="10.0355" height="10.5663" filterUnits="userSpaceOnUse" primitiveUnits="userSpaceOnUse"><feFlood flood-opacity="0" result="BackgroundImageFix"/><feBlend in="SourceGraphic" in2="BackgroundImageFix" result="shape" mode="normal"/><feGaussianBlur result="effect1_foregroundBlur_127_17274" stdDeviation="1.37508 1.37508"/></filter><filter id="filter11_f_127_17274" color-interpolation-filters="sRGB" x="-4.51187" y="2.02869" width="16.4007" height="19.3433" filterUnits="userSpaceOnUse" primitiveUnits="userSpaceOnUse"><feFlood flood-opacity="0" result="BackgroundImageFix"/><feBlend in="SourceGraphic" in2="BackgroundImageFix" result="shape" mode="normal"/><feGaussianBlur result="effect1_foregroundBlur_127_17274" stdDeviation="1.37508 1.37508"/></filter><filter id="filter12_f_127_17274" color-interpolation-filters="sRGB" x="-4.51187" y="2.02869" width="16.4007" height="19.3433" filterUnits="userSpaceOnUse" primitiveUnits="userSpaceOnUse"><feFlood flood-opacity="0" result="BackgroundImageFix"/><feBlend in="SourceGraphic" in2="BackgroundImageFix" result="shape" mode="normal"/><feGaussianBlur result="effect1_foregroundBlur_127_17274" stdDeviation="1.37508 1.37508"/></filter><filter id="filter13_f_127_17274" color-interpolation-filters="sRGB" x="6.71762" y="-0.49228" width="16.4007" height="19.3433" filterUnits="userSpaceOnUse" primitiveUnits="userSpaceOnUse"><feFlood flood-opacity="0" result="BackgroundImageFix"/><feBlend in="SourceGraphic" in2="BackgroundImageFix" result="shape" mode="normal"/><feGaussianBlur result="effect1_foregroundBlur_127_17274" stdDeviation="1.37508 1.37508"/></filter><filter id="filter14_f_127_17274" color-interpolation-filters="sRGB" x="9.84946" y="3.39893" width="11.7913" height="13.0528" filterUnits="userSpaceOnUse" primitiveUnits="userSpaceOnUse"><feFlood flood-opacity="0" result="BackgroundImageFix"/><feBlend in="SourceGraphic" in2="BackgroundImageFix" result="shape" mode="normal"/><feGaussianBlur result="effect1_foregroundBlur_127_17274" stdDeviation="1.37508 1.37508"/></filter></defs><path d="M20.7482 0 18.8887 0C21.641 3.93959 21.6571 10.0462 18.8887 14L20.7482 14C23.516 10.0462 23.4999 3.93959 20.7482 0Z" fill="#FFFFFF"/><path d="M2.07027 3.05176e-05C-0.682028 3.93963-0.698142 10.0463 2.07027 14L3.92985 14C1.16208 10.0463 1.1782 3.93963 3.92985 3.05176e-05L2.07027 3.05176e-05Z" fill="#FFFFFF"/><path d="M12.0135 13.6771C11.815 13.9297 11.4089 13.7892 11.4089 13.4682L11.4089 10.3853C11.4089 10.0114 11.106 9.70846 10.7321 9.70846L7.32818 9.70846C7.05295 9.70846 6.89245 9.39713 7.05295 9.17347L9.29089 6.04023C9.61124 5.59225 9.29089 4.9696 8.73979 4.9696L4.62036 4.9696C4.34513 4.9696 4.18463 4.65828 4.34512 4.43461L7.24632 0.372548C7.31013 0.283598 7.41262 0.230743 7.52155 0.230743L16.1671 0.230743C16.4424 0.230743 16.6029 0.542069 16.4424 0.765734L14.2044 3.89897C13.8841 4.34695 14.2044 4.9696 14.7555 4.9696L18.1595 4.9696C18.4418 4.9696 18.6004 5.29511 18.4257 5.51748L12.0142 13.6777 12.0135 13.6771Z" fill="#863BFF"/><g mask="url(#mask0_127_17274)"><g filter="url(#filter0_f_127_17274)"><ellipse cx="1.6481" cy="4.39979" rx="1.6481" ry="4.39979" fill="#EDE6FF" transform="matrix(0.00324134 0.999995 0.999995 -0.00324134 2.91309 9.66077)"/></g><g filter="url(#filter1_f_127_17274)"><ellipse cx="3.11172" cy="8.9321" rx="3.11172" ry="8.9321" fill="#EDE6FF" transform="matrix(0.00324134 0.999995 0.999995 -0.00324134 -7.51758 2.58936)"/></g><g filter="url(#filter2_f_127_17274)"><ellipse cx="1.6481" cy="9.12221" rx="1.6481" ry="9.12221" fill="#7E14FF" transform="matrix(0.00324134 0.999995 0.999995 -0.00324134 -7.8584 3.61816)"/></g><g filter="url(#filter3_f_127_17274)"><ellipse cx="1.6481" cy="9.15566" rx="1.6481" ry="9.15566" fill="#7E14FF" transform="matrix(0.00324134 0.999995 0.999995 -0.00324134 -6.4834 9.00391)"/></g><g filter="url(#filter4_f_127_17274)"><ellipse cx="1.6481" cy="9.15566" rx="1.6481" ry="9.15566" fill="#7E14FF" transform="matrix(0.00324134 0.999995 0.999995 -0.00324134 -6.02441 9.34766)"/></g><g filter="url(#filter5_f_127_17274)"><ellipse cx="4.21045" cy="6.60625" rx="4.21045" ry="6.60625" fill="#EDE6FF" transform="matrix(0.0584509 -0.99829 -0.99829 -0.0584509 26.4971 8.26871)"/></g><g filter="url(#filter6_f_127_17274)"><ellipse cx="1.03839" cy="6.43346" rx="1.03839" ry="6.43346" fill="#7E14FF" transform="matrix(-0.0172986 -0.99985 -0.99985 0.0172986 26.9297 5.63535)"/></g><g filter="url(#filter7_f_127_17274)"><ellipse cx="1.03839" cy="6.43346" rx="1.03839" ry="6.43346" fill="#7E14FF" transform="matrix(-0.0172986 -0.99985 -0.99985 0.0172986 26.9297 5.63535)"/></g><g filter="url(#filter8_f_127_17274)"><ellipse cx="4.36576" cy="2.91514" rx="1.31855" ry="8.70955" fill="#7E14FF" transform="matrix(0.77151 0.636217 -0.636217 0.77151 2.85219 -2.11149)"/></g><g filter="url(#filter9_f_127_17274)"><ellipse cx="18.4697" cy="-1.59207" rx="1.31855" ry="8.70955" fill="#7E14FF" transform="matrix(0.789167 0.614179 -0.614179 0.789167 2.91621 -11.6794)"/></g><g filter="url(#filter10_f_127_17274)"><ellipse cx="16.6417" cy="2.12577" rx="1.78679" ry="2.89199" fill="#47BFFF" transform="matrix(0.789167 0.614179 -0.614179 0.789167 4.81423 -9.7728)"/></g><g filter="url(#filter11_f_127_17274)"><ellipse cx="3.68841" cy="11.7003" rx="1.31855" ry="8.70955" fill="#7E14FF" transform="matrix(0.789167 0.614179 -0.614179 0.789167 7.96372 0.201469)"/></g><g filter="url(#filter12_f_127_17274)"><ellipse cx="3.68841" cy="11.7003" rx="1.31855" ry="8.70955" fill="#7E14FF" transform="matrix(0.789167 0.614179 -0.614179 0.789167 7.96372 0.201469)"/></g><g filter="url(#filter13_f_127_17274)"><ellipse cx="14.9179" cy="9.17936" rx="1.31855" ry="8.70955" fill="#7E14FF" transform="matrix(0.789167 0.614179 -0.614179 0.789167 8.78296 -7.22695)"/></g><g filter="url(#filter14_f_127_17274)"><ellipse cx="15.7453" cy="9.92533" rx="1.78679" ry="4.57726" fill="#47BFFF" transform="matrix(0.789167 0.614179 -0.614179 0.789167 9.41557 -7.57784)"/></g></g></svg>